<?xml version="1.0" encoding="utf-8"?>
<!-- Generator: Adobe Illustrator 16.0.0, SVG Export Plug-In . SVG Version: 6.00 Build 0)  -->
<!DOCTYPE svg PUBLIC "-//W3C//DTD SVG 1.1//EN" "http://www.w3.org/Graphics/SVG/1.1/DTD/svg11.dtd">
<svg version="1.1" id="logo" xmlns="http://www.w3.org/2000/svg" xmlns:xlink="http://www.w3.org/1999/xlink" x="0px" y="0px"
	 width="289.3px" height="286.2px" viewBox="0 0 289.3 286.2" style="enable-background:new 0 0 289.3 286.2;" xml:space="preserve"
	>
<style type="text/css">
<![CDATA[
	.st0{fill-rule:evenodd;clip-rule:evenodd;}
]]>
</style>
<path class="st0" d="M267.1,143.3L267.1,143.3L267.1,143.3z M199.6,63.3c-14.3-9.2-30.7-15.2-47.7-16.2c-34.3-0.1-68.7-0.1-103,0
	c-0.3,57.1-0.1,114.1-0.1,171.2c-0.1,9,0.2,18.1-0.2,27.2l-23.4-22.8c0-0.3,0-0.6-0.1-0.9c-0.3-5.3-0.1-10.6-0.1-15.9
	C25,145,24.7,84.1,25,23.3h122.1c1.1,0,2.2,0,3.3,0c0.1,0,0.1,0,0.2,0c0,0,0,0,0.1,0c64.4,1.9,116.5,55.1,116.5,120
	c0,51.7-33.1,96-79.2,112.8c-0.2,0.1-0.4,0.2-0.6,0.2c-0.9,0.3-1.8,0.6-2.7,0.9c0,0,0,0,0,0c-3,1-6,1.8-9,2.5c-4,1-8.1,1.8-12.2,2.4
	c0,0,0,0,0,0c-2.3,0.4-4.7,0.7-7,1c-1.7,0-3.4,0-5.1,0c-1.4,0-2.7,0.1-4.1,0.1h-8.7c-6,0-12,0-17.9,0c-8.9,0-17.9,0-26.8,0
	c-7,0-13.9,0-20.9-0.1v-0.7v-0.7v-0.7v-0.7v-0.7v-189h73.5c40.4,0,73.4,33.1,73.4,73.4c0,30-18.2,55.9-44.1,67.3
	c-9,4-19,6.2-29.4,6.2h-25.7v-24.3V94.9l-23.9,0l0,122.7l0,21.8c8,0.1,15.9,0.1,23.9,0.1c11.6,0,23.2,0,34.8-0.1
	c7-0.6,13.8-2,20.4-4.2c21.5-7.1,40.3-22,52.3-41.3c7.7-12.9,13.1-27.6,13.6-42.7c0.8-4.9,1-10,0.2-15
	C240,107.2,223.5,79.8,199.6,63.3L199.6,63.3z M25,255l8.4,8.3l23.3,22.9h63.7h25.7c10.1,0,19.9-1.1,29.4-3.1
	c64.7-13.7,113.7-71.4,113.7-140.1C289.3,64.4,224.9,0,146.2,0H0c0.1,76.6,0,153.2,0,229.8c0,0.2,0,0.4,0,0.6L25,255z"/>
</svg>
